PathFileType	4	(X/Y/Z)	Walk8.trc
DataRate	CameraRate	NumFrames	NumMarkers	Units	OrigDataRate	OrigDataStartFrame	OrigNumFrames
200.000000	200.000000	4	59	mm	200.000000	955	1039
Frame#	Times		RFA1		LFHD		RFHD		RCAR		RWRR		RACR1		LMT1		RUA1		LTH3		LTB1		LLFC		LACR1		LTB2		LToe		LASI		LTB3		LElbow		LUA1		RASI		RLFC		CLAV		STRN		RTH3		LWRU		LFA1		RBack		RMT5		RMT1		LCAR		RCAL		LTH4		RTB2		RToe		RLMAL		LTH1		LBHD		LPSI		RPSI		RTH1		RTB1		RTH2		RTB4		RTB3		LTB4		C7		RElbowM		RBHD		LMT5		RElbow		RMMAL		LWRR		RTH4		LTH2		LLMAL		LMMAL		T10		RWRU		LCAL		LElbowM
			X1	Y1	Z1	X2	Y2	Z2	X3	Y3	Z3	X4	Y4	Z4	X5	Y5	Z5	X6	Y6	Z6	X7	Y7	Z7	X8	Y8	Z8	X9	Y9	Z9	X10	Y10	Z10	X11	Y11	Z11	X12	Y12	Z12	X13	Y13	Z13	X14	Y14	Z14	X15	Y15	Z15	X16	Y16	Z16	X17	Y17	Z17	X18	Y18	Z18	X19	Y19	Z19	X20	Y20	Z20	X21	Y21	Z21	X22	Y22	Z22	X23	Y23	Z23	X24	Y24	Z24	X25	Y25	Z25	X26	Y26	Z26	X27	Y27	Z27	X28	Y28	Z28	X29	Y29	Z29	X30	Y30	Z30	X31	Y31	Z31	X32	Y32	Z32	X33	Y33	Z33	X34	Y34	Z34	X35	Y35	Z35	X36	Y36	Z36	X37	Y37	Z37	X38	Y38	Z38	X39	Y39	Z39	X40	Y40	Z40	X41	Y41	Z41	X42	Y42	Z42	X43	Y43	Z43	X44	Y44	Z44	X45	Y45	Z45	X46	Y46	Z46	X47	Y47	Z47	X48	Y48	Z48	X49	Y49	Z49	X50	Y50	Z50	X51	Y51	Z51	X52	Y52	Z52	X53	Y53	Z53	X54	Y54	Z54	X55	Y55	Z55	X56	Y56	Z56	X57	Y57	Z57	X58	Y58	Z58	X59	Y59	Z59

955	4.775	444.72	943.59	361.85	564.23	1556.2	-12.378	568.05	1555.4	85.408	485.79	788.96	381.41	443.19	840.45	398.45	421.68	1364.4	210.89	677.64	37.661	-14.063	394.64	1221.6	301.41	530.37	559.6	-140.85	576.1	338.76	-18.469	533.25	488.75	-121.82	433.49	1348.4	-149.31	576.46	258.93	-88.447	718.1	35.144	-12.588	521.48	951.84	-138.7	577.68	167.92	-32.408	309.41	1075.6	-251.88	394.31	1204	-223.65	495.07	941.59	209.83	331.57	453.02	216.43	500.7	1328.5	34.281	564.61	1211.1	45.466	353.41	542.31	225.16	251.5	843.21	-318.58	317.93	944.46	-290.65	282.49	1302.7	135.3	177.56	26.572	192.35	197.79	40.486	106.42	272.54	786.55	-324.65	40.022	124.24	148.39	521.35	643.52	-167.34	253.88	281.27	205.18	236.82	28.042	111.57	101.41	125.26	195.47	514.3	725.28	-191.05	410.82	1557	-34.583	279.38	974.63	-82.792	253.21	973.11	50.481	404.01	703.59	253.84	327.3	327.97	142.66	430.05	614.7	225.56	264.59	266.53	145.64	210.97	199.87	148.41	573.17	253.38	-26.794	341.38	1406.8	41.025	323.97	1039	268.97	398.65	1569.5	100.33	662.02	26.818	-103.73	364.13	1062.2	348.89	126.65	128.21	112.62	305.71	822.19	-271.4	372.4	626.36	241.22	570.29	657.14	-134.64	543.41	69.668	-98.174	551.4	72.744	-13.374	288.7	1075.9	15.515	474.26	840.17	330.64	488.99	29.523	-59.332	308.93	1036.1	-149.17
956	4.78	446.67	944.09	360.03	569	1556.9	-13.753	572.53	1556.2	84.054	486.51	789.08	379.68	444.28	840.94	396.66	426.1	1365.4	209.3	677.69	37.294	-13.954	398.01	1222.7	299.76	532.88	559.86	-142.45	578.16	338.71	-19.005	536.67	488.99	-122.46	438.28	1349	-150.79	578.19	258.74	-88.774	718.25	34.4	-12.447	526.36	953.04	-139.47	578.3	167.83	-32.48	315.69	1075.5	-253.1	399.99	1204.3	-224.89	500.04	943.26	208.27	339.39	453.46	217.45	505.2	1329.5	32.728	569.22	1212.2	43.624	360.57	542.67	225.67	258.36	842.86	-319.46	324.55	944.25	-291.44	286.87	1303.8	133.74	178.64	27.176	192.35	198.81	41.02	106.65	279.35	786.11	-325.13	44.416	129.71	149.39	524.4	643.95	-168.69	260.1	282.59	206.35	237.19	27.948	111.67	105.55	128.78	196.45	517.93	725.87	-192.24	415.65	1557.8	-36.37	284.31	975.3	-83.455	257.9	973.61	49.72	409.79	704.51	253.72	334.29	328.24	143.94	436.7	615.58	225.97	271.41	267.99	146.22	216.29	201.8	149.42	574.47	253.35	-27.108	346.01	1407.6	39.358	327.18	1040.4	266.49	403.1	1570.4	98.488	662.2	26.717	-103.9	366.85	1063.3	346.83	130.96	131.37	113.69	312.06	821.98	-271.77	378.96	626.95	241.34	573.73	657.14	-136.26	543.71	69.68	-98.311	551.46	72.811	-13.685	293.39	1076.6	14.534	475.54	840.46	328.91	489.04	29.634	-59.569	314.91	1036.4	-150.38
957	4.785	448.59	944.61	358.19	573.75	1557.7	-15.111	577	1557	82.716	487.15	789.21	377.89	445.32	841.45	394.86	430.5	1366.5	207.71	677.71	37.015	-13.864	401.39	1223.9	298.12	535.49	560.17	-143.87	580.12	338.66	-19.61	539.84	489.2	-123.12	443.04	1349.7	-152.24	579.76	258.54	-89.155	718.36	33.8	-12.339	531.2	954.32	-140.21	578.85	167.75	-32.583	322	1075.4	-254.32	405.68	1204.6	-226.1	504.99	945.01	206.75	347.39	453.89	218.48	509.7	1330.4	31.2	573.8	1213.4	41.805	367.85	543.02	226.22	265.4	842.54	-320.37	331.29	944.1	-292.23	291.24	1304.9	132.2	180.01	27.952	192.41	200.06	41.641	106.92	286.36	785.7	-325.62	49.093	135.21	150.43	527.38	644.35	-170.02	266.54	283.92	207.5	237.78	27.864	111.86	109.97	132.36	197.43	521.33	726.36	-193.53	420.46	1558.6	-38.132	289.18	976.02	-84.054	262.58	974.14	49.011	415.57	705.44	253.65	341.48	328.51	145.22	443.41	616.49	226.43	278.48	269.5	146.75	221.84	203.77	150.38	575.69	253.32	-27.478	350.6	1408.4	37.714	330.39	1041.8	264	407.55	1571.2	96.671	662.34	26.653	-104.05	369.56	1064.4	344.76	135.49	134.57	114.73	318.57	821.83	-272.14	385.6	627.53	241.5	577.1	657.25	-137.94	543.96	69.682	-98.452	551.5	72.884	-13.996	298.05	1077.3	13.578	476.76	840.78	327.15	489.06	29.72	-59.794	320.9	1036.7	-151.59
958	4.79	450.49	945.15	356.33	578.49	1558.4	-16.45	581.46	1557.7	81.397	487.74	789.34	376.06	446.33	841.99	393.05	434.86	1367.6	206.13	677.7	36.81	-13.792	404.78	1225.1	296.52	538.22	560.51	-145.11	581.97	338.61	-20.269	542.76	489.38	-123.77	447.76	1350.4	-153.65	581.15	258.33	-89.581	718.45	33.326	-12.258	536.02	955.66	-140.91	579.35	167.68	-32.714	328.35	1075.4	-255.54	411.38	1205	-227.29	509.92	946.82	205.31	355.55	454.28	219.51	514.17	1331.4	29.698	578.37	1214.7	40.016	375.24	543.34	226.8	272.62	842.23	-321.31	338.12	944	-293.03	295.6	1306	130.66	181.71	28.917	192.53	201.58	42.361	107.24	293.58	785.32	-326.12	54.045	140.69	151.49	530.32	644.72	-171.28	273.18	285.26	208.62	238.62	27.797	112.15	114.66	135.99	198.39	524.54	726.76	-194.89	425.27	1559.4	-39.867	294.01	976.75	-84.596	267.24	974.69	48.349	421.35	706.37	253.62	348.85	328.79	146.5	450.19	617.41	226.93	285.77	271.04	147.24	227.59	205.77	151.29	576.82	253.29	-27.894	355.16	1409.3	36.088	333.59	1043.3	261.52	411.98	1572.1	94.88	662.46	26.614	-104.19	372.25	1065.5	342.7	140.23	137.78	115.74	325.24	821.72	-272.52	392.28	628.09	241.72	580.41	657.44	-139.64	544.17	69.676	-98.595	551.52	72.959	-14.298	302.69	1077.9	12.649	477.93	841.11	325.37	489.07	29.783	-60.004	326.92	1037.1	-152.79
